# xmcd
#
# Track frame offsets:
#	150
#	13342
#	25750
#	41145
#	54877
#	69145
#	83987
#	98822
#	115212
#	128100
#
# Disc length: 1849 seconds
#
# Revision: 0
# Processed by: cddbd v1.5.2PL0 Copyright (c) Steve Scherf et al.
# Submitted via: dBpowerAMP V4.0
#
DISCID=7a07370a
DTITLE=Lourenço e Louruval - Amor Distante
DYEAR=2001
DGENRE=Country
TTITLE0=Você só quer ganhar no grito
TTITLE1=Casinha pobresinha
TTITLE2=Treinador japonês
TTITLE3=Fonte de renda
TTITLE4=Vou tirar você deste lugar
TTITLE5=Amor distante
TTITLE6=A rua em que você morava
TTITLE7=O fã da madona
TTITLE8=Seu gatinho
TTITLE9=Motorista particular
EXTD=
EXTT0=
EXTT1=
EXTT2=
EXTT3=
EXTT4=
EXTT5=
EXTT6=
EXTT7=
EXTT8=
EXTT9=
PLAYORDER=
